<?xml version="1.0" encoding="utf-8"?>
<!-- Generator: Adobe Illustrator 21.0.0, SVG Export Plug-In . SVG Version: 6.00 Build 0)  -->
<svg version="1.1" id="Layer_1" xmlns="http://www.w3.org/2000/svg" xmlns:xlink="http://www.w3.org/1999/xlink" x="0px" y="0px"
	 viewBox="0 0 67 67" style="enable-background:new 0 0 67 67;" xml:space="preserve">
<style type="text/css">
	.st0{fill:#FFFFFF;}
	.st1{fill:#D6492F;}
</style>
<g id="XMLID_1_">
	<g>
		<path class="st0" d="M61.7,22.5c0.4,1.1,0.8,2.2,1.1,3.3h-7.1v7.9h-3.3v-7.9h-7.8v-3.3h7.8v-7.8h3.3v7.8H61.7z"/>
		<path class="st1" d="M62.9,25.8c0.7,2.6,1.1,5.4,1.1,8.2c0,14.9-10.9,27.3-25.1,29.6c2.9-2.5,4.4-5.6,4.4-8.8
			c0-4.8-2.8-7.2-5.9-9.8l-2.5-2c-0.8-0.6-1.8-1.5-1.8-3c0-1.5,1-2.5,2-3.4c2.9-2.3,5.9-4.8,5.9-9.9c0-5.3-3.4-8.1-5-9.5h4.3
			l4.5-2.5H30.3c-2.1,0-4.5,0.2-6.9,0.9c-1.9,0.6-3.8,1.5-5.6,2.9c-3,2.6-4.5,6.2-4.5,9.4c0,5.4,4.2,11,11.6,11
			c0.7,0,1.5-0.1,2.2-0.1c-0.4,0.8-0.7,1.5-0.7,2.7c0,2.2,1.1,3.5,2.1,4.8c-3.2,0.2-9,0.6-13.4,3.2c-1.9,1.1-3.2,2.5-4,3.9
			c-0.1-0.1-0.2-0.2-0.2-0.3c0,0-0.1-0.1-0.1-0.1c-0.1-0.1-0.1-0.1-0.2-0.2c-0.2-0.3-0.4-0.5-0.6-0.8C10,52,10,52,10,52
			c0,0,0-0.1-0.1-0.1c-0.3-0.3-0.5-0.7-0.8-1.1c0,0,0,0,0,0c-0.3-0.4-0.5-0.8-0.8-1.2c-0.2-0.3-0.4-0.7-0.6-1c0,0,0,0,0,0
			c-0.1-0.1-0.2-0.3-0.2-0.4c-0.2-0.3-0.4-0.7-0.5-1c-0.2-0.4-0.4-0.9-0.6-1.3c0-0.1-0.1-0.2-0.1-0.3c-0.1-0.3-0.3-0.6-0.4-0.9
			c0-0.1-0.1-0.1-0.1-0.2c-0.1-0.3-0.2-0.6-0.3-0.8c0-0.1-0.1-0.2-0.1-0.3c-0.1-0.2-0.1-0.4-0.2-0.7c-0.1-0.3-0.2-0.7-0.3-1.1
			c-0.1-0.4-0.2-0.8-0.3-1.2c0-0.2-0.1-0.4-0.1-0.5c-0.1-0.3-0.1-0.6-0.2-0.9c0-0.1,0-0.2-0.1-0.3c0-0.1,0-0.2,0-0.2
			c0-0.2-0.1-0.4-0.1-0.6c0-0.3-0.1-0.5-0.1-0.8c0,0,0,0,0-0.1c0-0.3-0.1-0.7-0.1-1c0,0,0,0,0,0c0,0,0-0.1,0-0.2c0,0,0-0.1,0-0.1
			c0,0,0-0.1,0-0.1c0-0.1,0-0.1,0-0.2c0-0.4,0-0.8,0-1.2C4,17.4,17.4,4,34,4c12.5,0,23.2,7.6,27.7,18.5h-6v-7.8h-3.3v7.8h-7.8v3.3
			h7.8v7.9h3.3v-7.9H62.9z"/>
		<path class="st1" d="M38.9,63.6C38.9,63.6,38.9,63.6,38.9,63.6c-0.1,0-0.2,0-0.3,0.1C38.7,63.6,38.8,63.6,38.9,63.6z"/>
		<path class="st1" d="M37.3,63.8c0.4,0,0.9-0.1,1.3-0.2C38.2,63.7,37.7,63.8,37.3,63.8z"/>
		<path class="st1" d="M38.5,57.5c0,2.8-1.5,5.2-4.5,6.5c0,0-0.1,0-0.1,0c-6.7,0-12.9-2.2-17.9-5.9c-0.1-0.5-0.2-1-0.2-1.6
			c0-5,4.5-6.7,6-7.2c2.9-1,6.7-1.1,7.3-1.1c0.7,0,1.1,0,1.6,0C36.3,52.1,38.5,54,38.5,57.5z"/>
		<path class="st1" d="M36.8,63.9c0.2,0,0.3,0,0.5,0C37.1,63.8,37,63.8,36.8,63.9z"/>
		<path class="st1" d="M35.8,63.9c0.3,0,0.6,0,1-0.1C36.5,63.9,36.2,63.9,35.8,63.9z"/>
		<path class="st1" d="M34.7,29.9c0,1.3-0.1,3.5-1.7,5.1c-0.1,0.1-0.3,0.3-0.5,0.4c-1.1,0.9-2.8,1.6-4.3,1.6c-0.3,0-0.5,0-0.8,0
			c-5.5-0.7-7.9-7.9-7.9-12.4c0-1.8,0.4-3.7,1.5-5.2c0.7-0.9,1.7-1.6,2.9-2c0.7-0.2,1.4-0.4,2-0.4C31.7,17,34.7,24.9,34.7,29.9z"/>
		<path class="st0" d="M34.7,29.9c0-5-3-12.9-8.8-12.9c-0.7,0-1.4,0.1-2,0.4l-0.5-1.7c2.4-0.7,4.8-0.9,6.9-0.9h14.4l-4.5,2.5h-4.3
			c1.6,1.3,5,4.1,5,9.5c0,5.2-3,7.6-5.9,9.9l-2.5-1.2c0.2-0.1,0.3-0.3,0.5-0.4C34.6,33.4,34.7,31.2,34.7,29.9z"/>
		<path class="st0" d="M27.2,38.8c-0.8,0.1-1.5,0.1-2.2,0.1c-7.4,0-11.6-5.5-11.6-11c0-3.2,1.5-6.8,4.5-9.4c1.8-1.4,3.7-2.4,5.6-2.9
			l0.5,1.7c-1.1,0.4-2.1,1.1-2.9,2c-1.2,1.5-1.5,3.4-1.5,5.2c0,4.5,2.5,11.8,7.9,12.4L27.2,38.8z"/>
		<path class="st0" d="M13.8,56.2c-0.4-0.3-0.7-0.7-1-1s-0.7-0.7-1-1c-0.2-0.3-0.4-0.5-0.7-0.8c0.8-1.4,2.1-2.8,4-3.9
			c4.4-2.7,10.2-3,13.4-3.2c-1-1.3-2.1-2.6-2.1-4.8c0-1.2,0.4-1.9,0.7-2.7l0.2-1.9c0.3,0,0.5,0,0.8,0c1.5,0,3.2-0.6,4.3-1.6l2.5,1.2
			c-0.9,0.9-2,1.9-2,3.4c0,1.5,1,2.4,1.8,3l2.5,2c3.1,2.6,5.9,5,5.9,9.8c0,3.2-1.5,6.4-4.4,8.8c-0.1,0-0.2,0-0.3,0.1
			c-0.4,0.1-0.8,0.1-1.3,0.2c-0.2,0-0.3,0-0.5,0c-0.3,0-0.7,0.1-1,0.1c-0.6,0-1.2,0.1-1.8,0.1c2.9-1.3,4.5-3.7,4.5-6.5
			c0-3.6-2.3-5.5-7.6-9.3c-0.6,0-0.9,0-1.6,0c-0.6,0-4.4,0.1-7.3,1.1c-1.5,0.5-6,2.2-6,7.2c0,0.5,0.1,1.1,0.2,1.6
			c-0.5-0.3-0.9-0.7-1.3-1.1C14.5,56.8,14.1,56.5,13.8,56.2z"/>
		<path class="st1" d="M13.8,56.2c0.3,0.3,0.6,0.6,1,0.8C14.5,56.8,14.1,56.5,13.8,56.2z"/>
		<path class="st1" d="M12.8,55.2c0.3,0.3,0.7,0.7,1,1C13.5,55.9,13.1,55.5,12.8,55.2z"/>
		<path class="st1" d="M11.8,54.2c0.3,0.4,0.6,0.7,1,1C12.4,54.9,12.1,54.5,11.8,54.2z"/>
		<path class="st1" d="M11.1,53.4c0.2,0.3,0.4,0.5,0.7,0.8C11.6,53.9,11.4,53.7,11.1,53.4C11.1,53.4,11.1,53.4,11.1,53.4z"/>
		<path class="st1" d="M10.9,53.2c0,0.1,0.1,0.1,0.1,0.2C11,53.3,10.9,53.2,10.9,53.2C10.9,53.1,10.9,53.1,10.9,53.2z"/>
		<path class="st1" d="M10.7,52.9c0.1,0.1,0.1,0.1,0.2,0.2c-0.2-0.2-0.4-0.4-0.5-0.7C10.4,52.6,10.6,52.7,10.7,52.9z"/>
		<path class="st1" d="M10.1,52.1c0.1,0.1,0.2,0.2,0.3,0.3c-0.1-0.2-0.2-0.3-0.4-0.5C10,52,10,52,10.1,52.1z"/>
		<path class="st1" d="M9.9,51.9C9.9,51.9,9.9,51.9,9.9,51.9c0,0-0.1-0.1-0.1-0.1C9.8,51.8,9.9,51.8,9.9,51.9z"/>
		<path class="st1" d="M9.1,50.8c0.2,0.3,0.4,0.6,0.7,0.9C9.6,51.4,9.4,51.1,9.1,50.8z"/>
		<path class="st1" d="M8.4,49.5c0.1,0.1,0.1,0.3,0.2,0.4c-0.2-0.2-0.3-0.5-0.4-0.7C8.2,49.3,8.3,49.4,8.4,49.5z"/>
		<path class="st1" d="M7.5,48c0,0.1,0.1,0.2,0.1,0.3c-0.1-0.2-0.2-0.4-0.3-0.6C7.4,47.8,7.4,47.9,7.5,48z"/>
		<path class="st1" d="M6.4,45.7c0.1,0.1,0.1,0.3,0.2,0.4C6.5,46,6.4,45.8,6.4,45.7z"/>
		<path class="st1" d="M6.3,45.4c0,0.1,0.1,0.2,0.1,0.3C6.3,45.6,6.3,45.5,6.3,45.4z"/>
		<path class="st1" d="M5.8,44.3c0,0.1,0,0.1,0.1,0.2C5.9,44.5,5.8,44.4,5.8,44.3z"/>
		<path class="st1" d="M5.5,43.5c0.1,0.3,0.2,0.6,0.3,0.8c0,0,0,0,0,0C5.7,44,5.6,43.8,5.5,43.5z"/>
		<path class="st1" d="M5.5,43.5c0.1,0.3,0.2,0.5,0.3,0.8c-0.1-0.4-0.3-0.7-0.4-1.1C5.5,43.3,5.5,43.4,5.5,43.5z"/>
		<path class="st1" d="M5.3,42.6c0.1,0.2,0.1,0.4,0.2,0.7c0-0.1-0.1-0.2-0.1-0.4C5.3,42.8,5.3,42.7,5.3,42.6z"/>
		<path class="st1" d="M5.3,42.6c0,0.1,0.1,0.2,0.1,0.3c-0.1-0.3-0.2-0.6-0.3-0.8C5.1,42.2,5.2,42.4,5.3,42.6z"/>
		<path class="st1" d="M4.9,41.5C5,41.7,5,41.8,5.1,42c-0.1-0.4-0.2-0.8-0.3-1.3C4.8,41,4.9,41.2,4.9,41.5z"/>
		<path class="st1" d="M4.7,40.3c0,0.1,0.1,0.3,0.1,0.4c-0.1-0.2-0.1-0.5-0.2-0.7C4.6,40.1,4.7,40.2,4.7,40.3z"/>
		<path class="st1" d="M4.7,40.3c0-0.1,0-0.2-0.1-0.3s0-0.2-0.1-0.3C4.6,40,4.6,40.1,4.7,40.3z"/>
		<path class="st1" d="M4.3,38.3c0,0.1,0,0.2,0,0.2c0-0.2,0-0.3-0.1-0.5C4.3,38.2,4.3,38.3,4.3,38.3z"/>
		<path class="st1" d="M4.2,37.7c0-0.1,0-0.3-0.1-0.4c0-0.1,0-0.3,0-0.4C4.2,37.2,4.2,37.4,4.2,37.7z"/>
		<path class="st1" d="M4.2,37.3c0,0.1,0,0.3,0.1,0.4C4.2,37.6,4.2,37.4,4.2,37.3z"/>
		<path class="st1" d="M4.1,36.9C4.1,36.9,4.1,36.9,4.1,36.9c0,0,0-0.1,0-0.1C4.1,36.8,4.1,36.8,4.1,36.9z"/>
		<path class="st1" d="M4.1,35.8c0,0,0-0.1,0-0.2C4.1,35.7,4.1,35.8,4.1,35.8z"/>
		<path class="st1" d="M4,35.4c0,0,0,0.1,0,0.1C4,35.5,4,35.4,4,35.4C4,35.4,4,35.4,4,35.4z"/>
		<path class="st1" d="M4,34c0,0.4,0,0.8,0,1.2C4,34.8,4,34.4,4,34z"/>
	</g>
	<g>
	</g>
</g>
</svg>
