<?xml version="1.0" encoding="utf-8"?>
<!-- Generator: Adobe Illustrator 21.0.0, SVG Export Plug-In . SVG Version: 6.00 Build 0)  -->
<svg version="1.1" id="Layer_1" xmlns="http://www.w3.org/2000/svg" xmlns:xlink="http://www.w3.org/1999/xlink" x="0px" y="0px"
	 viewBox="0 0 64 64" style="enable-background:new 0 0 64 64;" xml:space="preserve">
<style type="text/css">
	.st0{fill:#FFFFFF;}
</style>
<title></title>
<path id="_Compound_Path_" class="st0" d="M64,32C64,14.3,49.7,0,32,0S0,14.3,0,32s14.3,32,32,32S64,49.7,64,32z M58.4,32
	c0,14.6-11.8,26.4-26.4,26.4S5.6,46.6,5.6,32C5.6,17.4,17.4,5.6,32,5.6l0,0C46.6,5.6,58.4,17.4,58.4,32z"/>
<rect x="28.5" y="12.2" class="st0" width="7" height="7"/>
<polygon class="st0" points="35.5,44.4 35.5,30.9 35.5,23.9 28.9,23.9 25.6,23.9 25.6,30.9 28.9,30.9 28.9,44.4 25.6,44.4 
	25.6,51.3 28.9,51.3 35.5,51.3 38.3,51.3 38.3,44.4 "/>
</svg>
