<?xml version="1.0" encoding="utf-8"?>
<!-- Generator: Adobe Illustrator 21.0.0, SVG Export Plug-In . SVG Version: 6.00 Build 0)  -->
<svg version="1.1" id="레이어_1" xmlns="http://www.w3.org/2000/svg" xmlns:xlink="http://www.w3.org/1999/xlink" x="0px"
	 y="0px" viewBox="0 0 32 32" style="enable-background:new 0 0 32 32;" xml:space="preserve">
<style type="text/css">
	.st0{fill:#FFFFFF;}
</style>
<title></title>
<g id="_1">
	<path id="logout_account_exit_door" class="st0" d="M27,3v26c0,0.6-0.4,1-1,1H6c-0.6,0-1-0.4-1-1v-2h2v1h18V4H7v3H5V3
		c0-0.6,0.4-1,1-1h20C26.6,2,27,2.4,27,3z M10.7,20.3L7.4,17H18v-2H7.4l3.3-3.3l-1.4-1.4l-5,5c-0.4,0.4-0.4,1,0,1.4c0,0,0,0,0,0l5,5
		L10.7,20.3z"/>
</g>
</svg>
