<?xml version="1.0" encoding="utf-8"?>
<!-- Generator: Adobe Illustrator 21.0.0, SVG Export Plug-In . SVG Version: 6.00 Build 0)  -->
<svg version="1.1" id="Слой_1" xmlns="http://www.w3.org/2000/svg" xmlns:xlink="http://www.w3.org/1999/xlink" x="0px" y="0px"
	 viewBox="0 0 26 26" style="enable-background:new 0 0 26 26;" xml:space="preserve">
<style type="text/css">
	.st0{fill:#FFFFFF;}
</style>
<path class="st0" d="M25,13c0-6.6-5.4-12-12-12S1,6.4,1,13c0,3.4,1.4,6.4,3.7,8.6c0.1,0.1,0.1,0.1,0.2,0.2c2.1,2,5,3.2,8.1,3.2
	s6-1.2,8.1-3.2c0.1,0,0.1-0.1,0.2-0.2C23.6,19.4,25,16.4,25,13z M13,2.5c5.8,0,10.5,4.7,10.5,10.5c0,2.5-0.9,4.7-2.3,6.5
	c-0.7-2.1-2.5-3.7-5-4.5c1.4-1,2.3-2.6,2.3-4.4c0-3-2.5-5.5-5.5-5.5s-5.5,2.5-5.5,5.5c0,1.8,0.9,3.4,2.3,4.4c-2.5,0.8-4.4,2.4-5,4.5
	c-1.4-1.8-2.3-4-2.3-6.5C2.5,7.2,7.2,2.5,13,2.5z M9,10.6c0-2.2,1.8-4,4-4s4,1.8,4,4s-1.8,4-4,4S9,12.8,9,10.6z M6,20.8
	c0.2-2.7,3.1-4.8,7-4.8s6.7,2,7,4.8c-1.9,1.7-4.3,2.7-7,2.7S7.9,22.5,6,20.8z"/>
</svg>
